<?xml version="1.0" standalone="no"?>
<!DOCTYPE svg PUBLIC "-//W3C//DTD SVG 20010904//EN"
 "http://www.w3.org/TR/2001/REC-SVG-20010904/DTD/svg10.dtd">
<svg version="1.0" xmlns="http://www.w3.org/2000/svg"
 width="512.000000pt" height="512.000000pt" viewBox="0 0 512.000000 512.000000"
 preserveAspectRatio="xMidYMid meet">
<metadata>
Created by potrace 1.11, written by Peter Selinger 2001-2013
</metadata>
<g transform="translate(0.000000,512.000000) scale(0.100000,-0.100000)"
fill="#000000" stroke="none">
<path d="M701 4243 c-62 -22 -133 -97 -161 -169 l-22 -59 -2 -1510 c0 -830 3
-1532 7 -1559 12 -69 42 -124 95 -174 83 -78 -70 -72 1963 -72 1984 0 1858 -3
1937 57 41 31 89 103 103 158 13 46 17 3057 4 3115 -12 55 -43 110 -91 156
-81 80 76 74 -1968 73 -1610 -1 -1826 -2 -1865 -16z m3522 -407 c62 -42 59 47
59 -1372 l0 -1294 -21 -34 c-12 -18 -36 -40 -53 -47 -46 -19 -3218 -20 -3264
0 -18 7 -40 29 -53 51 l-21 38 2 1299 c3 1231 4 1299 21 1324 38 57 -59 54
1688 54 1565 0 1615 -1 1642 -19z"/>
<path d="M3530 3501 c-207 -68 -273 -318 -123 -468 58 -58 106 -78 188 -78 78
1 97 4 140 27 114 61 171 191 138 318 -30 117 -128 198 -250 205 -37 3 -79 1
-93 -4z"/>
<path d="M2214 2745 c-21 -9 -73 -66 -147 -157 -63 -79 -145 -181 -183 -228
-38 -47 -155 -191 -259 -320 -103 -129 -191 -237 -195 -240 -3 -3 -40 -49 -83
-103 -66 -85 -77 -104 -77 -138 0 -49 22 -84 62 -98 44 -15 2481 -15 2509 0
30 15 49 67 37 98 -8 22 -111 155 -202 262 -17 19 -87 105 -156 190 -68 85
-127 156 -130 159 -3 3 -43 52 -89 110 -122 151 -143 170 -186 170 -51 0 -82
-21 -145 -102 -72 -92 -129 -116 -196 -86 -21 10 -175 189 -328 382 -88 112
-148 138 -232 101z"/>
</g>
</svg>
